<mxfile host="app.diagrams.net" modified="2023-03-10T13:57:39.965Z" agent="5.0 (Windows NT 10.0; Win64; x64) AppleWebKit/537.36 (KHTML, like Gecko) Chrome/109.0.0.0 Safari/537.36" etag="pvPjjmpHPbOplyN7Pk89" version="20.8.10" type="github">
  <diagram id="C5RBs43oDa-KdzZeNtuy" name="Page-1">
    <mxGraphModel dx="2317" dy="1840" grid="1" gridSize="10" guides="1" tooltips="1" connect="1" arrows="1" fold="1" page="1" pageScale="1" pageWidth="827" pageHeight="1169" math="0" shadow="0">
      <root>
        <mxCell id="WIyWlLk6GJQsqaUBKTNV-0" />
        <mxCell id="WIyWlLk6GJQsqaUBKTNV-1" parent="WIyWlLk6GJQsqaUBKTNV-0" />
        <mxCell id="WIyWlLk6GJQsqaUBKTNV-2" value="" style="rounded=0;html=1;jettySize=auto;orthogonalLoop=1;fontSize=11;endArrow=block;endFill=0;endSize=8;strokeWidth=1;shadow=0;labelBackgroundColor=none;edgeStyle=orthogonalEdgeStyle;" parent="WIyWlLk6GJQsqaUBKTNV-1" source="WIyWlLk6GJQsqaUBKTNV-3" target="WIyWlLk6GJQsqaUBKTNV-6" edge="1">
          <mxGeometry relative="1" as="geometry" />
        </mxCell>
        <mxCell id="WIyWlLk6GJQsqaUBKTNV-3" value="&lt;font style=&quot;font-size: 14px;&quot;&gt;&lt;b&gt;Recieve a&amp;nbsp; client DNS requesr&lt;/b&gt;&lt;/font&gt;" style="rounded=1;whiteSpace=wrap;html=1;fontSize=12;glass=0;strokeWidth=1;shadow=0;" parent="WIyWlLk6GJQsqaUBKTNV-1" vertex="1">
          <mxGeometry x="242" y="169" width="250" height="81" as="geometry" />
        </mxCell>
        <mxCell id="WIyWlLk6GJQsqaUBKTNV-4" value="Yes" style="rounded=0;html=1;jettySize=auto;orthogonalLoop=1;fontSize=11;endArrow=block;endFill=0;endSize=8;strokeWidth=1;shadow=0;labelBackgroundColor=none;edgeStyle=orthogonalEdgeStyle;" parent="WIyWlLk6GJQsqaUBKTNV-1" source="WIyWlLk6GJQsqaUBKTNV-6" target="WIyWlLk6GJQsqaUBKTNV-10" edge="1">
          <mxGeometry x="-1" y="108" relative="1" as="geometry">
            <mxPoint x="-27" y="-71" as="offset" />
            <Array as="points">
              <mxPoint x="370" y="479" />
              <mxPoint x="370" y="479" />
            </Array>
          </mxGeometry>
        </mxCell>
        <mxCell id="WIyWlLk6GJQsqaUBKTNV-5" value="No" style="edgeStyle=orthogonalEdgeStyle;rounded=0;html=1;jettySize=auto;orthogonalLoop=1;fontSize=11;endArrow=block;endFill=0;endSize=8;strokeWidth=1;shadow=0;labelBackgroundColor=none;" parent="WIyWlLk6GJQsqaUBKTNV-1" source="WIyWlLk6GJQsqaUBKTNV-6" target="WIyWlLk6GJQsqaUBKTNV-7" edge="1">
          <mxGeometry x="-1" y="-89" relative="1" as="geometry">
            <mxPoint x="-41" y="-10" as="offset" />
          </mxGeometry>
        </mxCell>
        <mxCell id="WIyWlLk6GJQsqaUBKTNV-6" value="&lt;b&gt;Domain in staric records?&lt;/b&gt;" style="rhombus;whiteSpace=wrap;html=1;shadow=0;fontFamily=Helvetica;fontSize=12;align=center;strokeWidth=1;spacing=6;spacingTop=-4;" parent="WIyWlLk6GJQsqaUBKTNV-1" vertex="1">
          <mxGeometry x="305" y="289" width="124" height="120" as="geometry" />
        </mxCell>
        <mxCell id="WIyWlLk6GJQsqaUBKTNV-7" value="&lt;b&gt;sends response to client&lt;/b&gt;" style="rounded=1;whiteSpace=wrap;html=1;fontSize=12;glass=0;strokeWidth=1;shadow=0;" parent="WIyWlLk6GJQsqaUBKTNV-1" vertex="1">
          <mxGeometry x="590" y="289" width="210" height="80" as="geometry" />
        </mxCell>
        <mxCell id="WIyWlLk6GJQsqaUBKTNV-10" value="&lt;b&gt;Domain in cache records?&lt;/b&gt;" style="rhombus;whiteSpace=wrap;html=1;shadow=0;fontFamily=Helvetica;fontSize=12;align=center;strokeWidth=1;spacing=6;spacingTop=-4;" parent="WIyWlLk6GJQsqaUBKTNV-1" vertex="1">
          <mxGeometry x="305" y="476" width="128.5" height="120" as="geometry" />
        </mxCell>
        <mxCell id="WIyWlLk6GJQsqaUBKTNV-11" value="&lt;b&gt;Get DNS record from Google&amp;nbsp;&lt;br style=&quot;border-color: var(--border-color); font-size: 14px;&quot;&gt;8.8.8.8&lt;/b&gt;" style="rounded=1;whiteSpace=wrap;html=1;fontSize=12;glass=0;strokeWidth=1;shadow=0;" parent="WIyWlLk6GJQsqaUBKTNV-1" vertex="1">
          <mxGeometry x="300" y="659" width="130" height="50" as="geometry" />
        </mxCell>
        <mxCell id="sapFQSjeT1e79qBDElDf-0" value="&lt;b&gt;&lt;font style=&quot;font-size: 36px;&quot;&gt;DNS SERVER&lt;/font&gt;&lt;/b&gt;" style="text;html=1;strokeColor=none;fillColor=none;align=center;verticalAlign=middle;whiteSpace=wrap;rounded=0;" vertex="1" parent="WIyWlLk6GJQsqaUBKTNV-1">
          <mxGeometry x="234.25" y="-1" width="270" height="100" as="geometry" />
        </mxCell>
        <mxCell id="sapFQSjeT1e79qBDElDf-2" value="No" style="edgeStyle=orthogonalEdgeStyle;rounded=0;html=1;jettySize=auto;orthogonalLoop=1;fontSize=11;endArrow=block;endFill=0;endSize=8;strokeWidth=1;shadow=0;labelBackgroundColor=none;" edge="1" parent="WIyWlLk6GJQsqaUBKTNV-1">
          <mxGeometry x="-1" y="-91" relative="1" as="geometry">
            <mxPoint x="-54" y="-18" as="offset" />
            <mxPoint x="434" y="536" as="sourcePoint" />
            <mxPoint x="534" y="536" as="targetPoint" />
            <Array as="points">
              <mxPoint x="452" y="536" />
              <mxPoint x="494" y="536" />
            </Array>
          </mxGeometry>
        </mxCell>
        <mxCell id="sapFQSjeT1e79qBDElDf-3" value="&lt;b&gt;is TTL expired?&lt;/b&gt;" style="rhombus;whiteSpace=wrap;html=1;shadow=0;fontFamily=Helvetica;fontSize=12;align=center;strokeWidth=1;spacing=6;spacingTop=-4;" vertex="1" parent="WIyWlLk6GJQsqaUBKTNV-1">
          <mxGeometry x="530" y="476" width="128.5" height="120" as="geometry" />
        </mxCell>
        <mxCell id="sapFQSjeT1e79qBDElDf-5" value="Yes" style="rounded=0;html=1;jettySize=auto;orthogonalLoop=1;fontSize=11;endArrow=block;endFill=0;endSize=8;strokeWidth=1;shadow=0;labelBackgroundColor=none;edgeStyle=orthogonalEdgeStyle;" edge="1" parent="WIyWlLk6GJQsqaUBKTNV-1">
          <mxGeometry x="-1" y="108" relative="1" as="geometry">
            <mxPoint x="-27" y="-71" as="offset" />
            <mxPoint x="370.0000000000002" y="597.5" as="sourcePoint" />
            <mxPoint x="370" y="650" as="targetPoint" />
            <Array as="points">
              <mxPoint x="371" y="644" />
              <mxPoint x="371" y="644" />
            </Array>
          </mxGeometry>
        </mxCell>
        <mxCell id="sapFQSjeT1e79qBDElDf-10" value="" style="endArrow=block;html=1;rounded=0;strokeWidth=1;fontSize=11;jumpSize=12;labelBackgroundColor=none;endFill=0;endSize=8;shadow=0;" edge="1" parent="WIyWlLk6GJQsqaUBKTNV-1">
          <mxGeometry width="50" height="50" relative="1" as="geometry">
            <mxPoint x="699" y="690" as="sourcePoint" />
            <mxPoint x="700" y="373" as="targetPoint" />
          </mxGeometry>
        </mxCell>
        <mxCell id="sapFQSjeT1e79qBDElDf-11" value="" style="endArrow=none;html=1;rounded=0;strokeWidth=1;fontSize=14;jumpSize=12;" edge="1" parent="WIyWlLk6GJQsqaUBKTNV-1">
          <mxGeometry width="50" height="50" relative="1" as="geometry">
            <mxPoint x="430" y="689" as="sourcePoint" />
            <mxPoint x="700" y="689" as="targetPoint" />
          </mxGeometry>
        </mxCell>
        <mxCell id="sapFQSjeT1e79qBDElDf-16" value="Yes" style="text;html=1;strokeColor=none;fillColor=none;align=center;verticalAlign=middle;whiteSpace=wrap;rounded=0;fontSize=14;" vertex="1" parent="WIyWlLk6GJQsqaUBKTNV-1">
          <mxGeometry x="530" y="619" width="60" height="30" as="geometry" />
        </mxCell>
        <mxCell id="sapFQSjeT1e79qBDElDf-17" value="" style="endArrow=none;html=1;rounded=0;strokeWidth=1;fontSize=14;jumpSize=12;exitX=0.5;exitY=0;exitDx=0;exitDy=0;" edge="1" parent="WIyWlLk6GJQsqaUBKTNV-1">
          <mxGeometry width="50" height="50" relative="1" as="geometry">
            <mxPoint x="594.25" y="478" as="sourcePoint" />
            <mxPoint x="700" y="439" as="targetPoint" />
            <Array as="points">
              <mxPoint x="594" y="439" />
            </Array>
          </mxGeometry>
        </mxCell>
        <mxCell id="sapFQSjeT1e79qBDElDf-18" value="No" style="text;html=1;strokeColor=none;fillColor=none;align=center;verticalAlign=middle;whiteSpace=wrap;rounded=0;fontSize=14;" vertex="1" parent="WIyWlLk6GJQsqaUBKTNV-1">
          <mxGeometry x="580" y="450" width="60" height="30" as="geometry" />
        </mxCell>
        <mxCell id="sapFQSjeT1e79qBDElDf-19" value="" style="shape=flexArrow;endArrow=classic;startArrow=classic;html=1;rounded=0;strokeWidth=1;fontSize=14;jumpSize=12;" edge="1" parent="WIyWlLk6GJQsqaUBKTNV-1">
          <mxGeometry width="100" height="100" relative="1" as="geometry">
            <mxPoint x="180" y="673.44" as="sourcePoint" />
            <mxPoint x="294" y="673.44" as="targetPoint" />
          </mxGeometry>
        </mxCell>
        <mxCell id="sapFQSjeT1e79qBDElDf-20" value="&lt;b&gt;&lt;br&gt;&lt;span style=&quot;font-size: 12px;&quot;&gt;8.8.8.8&lt;/span&gt;&lt;/b&gt;" style="ellipse;shape=cloud;whiteSpace=wrap;html=1;fontSize=14;" vertex="1" parent="WIyWlLk6GJQsqaUBKTNV-1">
          <mxGeometry x="-4" y="619" width="190" height="110" as="geometry" />
        </mxCell>
        <mxCell id="sapFQSjeT1e79qBDElDf-22" value="&lt;div style=&quot;text-align: center;&quot;&gt;&lt;span style=&quot;font-size: 36px;&quot;&gt;Protocol &amp;amp; Packets&lt;/span&gt;&lt;/div&gt;" style="text;whiteSpace=wrap;html=1;fontSize=14;" vertex="1" parent="WIyWlLk6GJQsqaUBKTNV-1">
          <mxGeometry x="-593" y="99" width="360" height="70" as="geometry" />
        </mxCell>
        <mxCell id="sapFQSjeT1e79qBDElDf-23" value="&lt;font style=&quot;font-size: 36px;&quot;&gt;&lt;br&gt;Flowchart&lt;/font&gt;" style="text;html=1;strokeColor=none;fillColor=none;align=center;verticalAlign=middle;whiteSpace=wrap;rounded=0;" vertex="1" parent="WIyWlLk6GJQsqaUBKTNV-1">
          <mxGeometry x="222" y="49" width="270" height="100" as="geometry" />
        </mxCell>
        <mxCell id="sapFQSjeT1e79qBDElDf-25" value="" style="endArrow=block;html=1;rounded=0;strokeWidth=1;fontSize=11;jumpSize=12;exitX=0.25;exitY=0;exitDx=0;exitDy=0;labelBackgroundColor=none;endFill=0;endSize=8;shadow=0;" edge="1" parent="WIyWlLk6GJQsqaUBKTNV-1" source="WIyWlLk6GJQsqaUBKTNV-11">
          <mxGeometry width="50" height="50" relative="1" as="geometry">
            <mxPoint x="310" y="659" as="sourcePoint" />
            <mxPoint x="240" y="570" as="targetPoint" />
          </mxGeometry>
        </mxCell>
        <mxCell id="sapFQSjeT1e79qBDElDf-26" value="&lt;b&gt;save record in cache&lt;/b&gt;" style="rounded=1;whiteSpace=wrap;html=1;fontSize=12;glass=0;strokeWidth=1;shadow=0;" vertex="1" parent="WIyWlLk6GJQsqaUBKTNV-1">
          <mxGeometry x="32" y="496" width="210" height="80" as="geometry" />
        </mxCell>
        <mxCell id="sapFQSjeT1e79qBDElDf-29" value="" style="endArrow=block;html=1;rounded=0;strokeWidth=1;fontSize=11;jumpSize=12;labelBackgroundColor=none;endFill=0;endSize=8;shadow=0;" edge="1" parent="WIyWlLk6GJQsqaUBKTNV-1">
          <mxGeometry width="50" height="50" relative="1" as="geometry">
            <mxPoint x="595" y="670" as="sourcePoint" />
            <mxPoint x="440" y="670" as="targetPoint" />
          </mxGeometry>
        </mxCell>
        <mxCell id="sapFQSjeT1e79qBDElDf-30" value="" style="endArrow=none;html=1;rounded=0;strokeWidth=1;fontSize=14;jumpSize=12;entryX=0.5;entryY=1;entryDx=0;entryDy=0;" edge="1" parent="WIyWlLk6GJQsqaUBKTNV-1" target="sapFQSjeT1e79qBDElDf-3">
          <mxGeometry width="50" height="50" relative="1" as="geometry">
            <mxPoint x="594" y="670" as="sourcePoint" />
            <mxPoint x="629" y="620" as="targetPoint" />
          </mxGeometry>
        </mxCell>
      </root>
    </mxGraphModel>
  </diagram>
</mxfile>
